<mxfile>
  <diagram id="I_Mq-XCKu6KyfWekH5aY" name="Page-1">
    <mxGraphModel dx="1377" dy="910" grid="1" gridSize="10" guides="1" tooltips="1" connect="1" arrows="1" fold="1" page="1" pageScale="1" pageWidth="827" pageHeight="1169" background="#FFFFFF" math="0" shadow="0">
      <root>
        <mxCell id="0" />
        <mxCell id="1" parent="0" />
        <mxCell id="3" style="edgeStyle=none;html=1;exitX=0.5;exitY=1;exitDx=0;exitDy=0;" edge="1" parent="1" source="45" target="4">
          <mxGeometry relative="1" as="geometry">
            <mxPoint x="351" y="120" as="targetPoint" />
            <mxPoint x="351" y="120" as="sourcePoint" />
          </mxGeometry>
        </mxCell>
        <mxCell id="46" style="edgeStyle=none;html=1;exitX=0.5;exitY=1;exitDx=0;exitDy=0;entryX=0.5;entryY=0;entryDx=0;entryDy=0;" edge="1" parent="1" source="2" target="45">
          <mxGeometry relative="1" as="geometry" />
        </mxCell>
        <mxCell id="2" value="BOOLROAD" style="rounded=0;whiteSpace=wrap;html=1;fillColor=#99FFCC;" parent="1" vertex="1">
          <mxGeometry x="303" y="10" width="96" height="40" as="geometry" />
        </mxCell>
        <mxCell id="7" style="edgeStyle=none;html=1;exitX=0;exitY=1;exitDx=0;exitDy=0;entryX=1;entryY=0;entryDx=0;entryDy=0;" edge="1" parent="1" source="4" target="6">
          <mxGeometry relative="1" as="geometry" />
        </mxCell>
        <mxCell id="9" style="edgeStyle=none;html=1;entryX=0.5;entryY=0;entryDx=0;entryDy=0;exitX=1;exitY=1;exitDx=0;exitDy=0;" edge="1" parent="1" source="4" target="8">
          <mxGeometry relative="1" as="geometry" />
        </mxCell>
        <mxCell id="10" style="edgeStyle=none;html=1;exitX=1;exitY=0.5;exitDx=0;exitDy=0;entryX=0;entryY=0.5;entryDx=0;entryDy=0;" edge="1" parent="1" source="4" target="11">
          <mxGeometry relative="1" as="geometry">
            <mxPoint x="589" y="179" as="targetPoint" />
          </mxGeometry>
        </mxCell>
        <mxCell id="13" style="edgeStyle=none;html=1;exitX=0.5;exitY=1;exitDx=0;exitDy=0;entryX=0.5;entryY=0;entryDx=0;entryDy=0;" edge="1" parent="1" source="4" target="14">
          <mxGeometry relative="1" as="geometry">
            <mxPoint x="351.11764705882365" y="243.9999999999999" as="targetPoint" />
          </mxGeometry>
        </mxCell>
        <mxCell id="4" value="Route" style="rounded=0;whiteSpace=wrap;html=1;" vertex="1" parent="1">
          <mxGeometry x="298" y="164" width="106" height="30" as="geometry" />
        </mxCell>
        <mxCell id="22" style="edgeStyle=none;html=1;exitX=0.5;exitY=1;exitDx=0;exitDy=0;entryX=0.5;entryY=0;entryDx=0;entryDy=0;" edge="1" parent="1" source="6" target="23">
          <mxGeometry relative="1" as="geometry">
            <mxPoint x="93" y="374" as="targetPoint" />
          </mxGeometry>
        </mxCell>
        <mxCell id="6" value="&lt;span style=&quot;background-color: transparent;&quot;&gt;&lt;font color=&quot;#000000&quot;&gt;Trip&lt;/font&gt; page (HOME)&lt;/span&gt;" style="rounded=0;whiteSpace=wrap;html=1;" vertex="1" parent="1">
          <mxGeometry x="29" y="274" width="130" height="60" as="geometry" />
        </mxCell>
        <mxCell id="56" style="edgeStyle=none;html=1;entryX=0.5;entryY=0;entryDx=0;entryDy=0;exitX=0.5;exitY=1;exitDx=0;exitDy=0;" edge="1" parent="1" source="8" target="57">
          <mxGeometry relative="1" as="geometry">
            <mxPoint x="799" y="390" as="targetPoint" />
          </mxGeometry>
        </mxCell>
        <mxCell id="8" value="Single trip page&amp;nbsp;" style="rounded=0;whiteSpace=wrap;html=1;" vertex="1" parent="1">
          <mxGeometry x="559" y="270" width="130" height="60" as="geometry" />
        </mxCell>
        <mxCell id="49" style="edgeStyle=none;html=1;exitX=0.5;exitY=1;exitDx=0;exitDy=0;entryX=0.5;entryY=0;entryDx=0;entryDy=0;" edge="1" parent="1" source="11" target="48">
          <mxGeometry relative="1" as="geometry" />
        </mxCell>
        <mxCell id="51" style="edgeStyle=none;html=1;exitX=0.5;exitY=1;exitDx=0;exitDy=0;entryX=0.5;entryY=0;entryDx=0;entryDy=0;" edge="1" parent="1" source="11" target="50">
          <mxGeometry relative="1" as="geometry" />
        </mxCell>
        <mxCell id="11" value="New Trip page" style="rounded=0;whiteSpace=wrap;html=1;fillColor=#FFFF66;" vertex="1" parent="1">
          <mxGeometry x="539" y="40" width="130" height="60" as="geometry" />
        </mxCell>
        <mxCell id="15" style="edgeStyle=none;html=1;entryX=0.5;entryY=0;entryDx=0;entryDy=0;" edge="1" parent="1" source="14" target="16">
          <mxGeometry relative="1" as="geometry">
            <mxPoint x="351.0000000000002" y="303.9999999999999" as="targetPoint" />
          </mxGeometry>
        </mxCell>
        <mxCell id="14" value="Layout" style="rounded=0;whiteSpace=wrap;html=1;fillColor=#E6E6E6;" vertex="1" parent="1">
          <mxGeometry x="314.5" y="234" width="73" height="30" as="geometry" />
        </mxCell>
        <mxCell id="17" style="edgeStyle=none;html=1;exitX=0.5;exitY=1;exitDx=0;exitDy=0;entryX=0.5;entryY=0;entryDx=0;entryDy=0;" edge="1" parent="1" source="16" target="18">
          <mxGeometry relative="1" as="geometry">
            <mxPoint x="351" y="354" as="targetPoint" />
          </mxGeometry>
        </mxCell>
        <mxCell id="16" value="Header" style="rounded=0;whiteSpace=wrap;html=1;fillColor=#E6E6E6;" vertex="1" parent="1">
          <mxGeometry x="314.5" y="289" width="73" height="30" as="geometry" />
        </mxCell>
        <mxCell id="20" style="edgeStyle=none;html=1;exitX=0.5;exitY=1;exitDx=0;exitDy=0;entryX=0.5;entryY=0;entryDx=0;entryDy=0;" edge="1" parent="1" source="18" target="21">
          <mxGeometry relative="1" as="geometry">
            <mxPoint x="351" y="394" as="targetPoint" />
          </mxGeometry>
        </mxCell>
        <mxCell id="18" value="Outlet" style="rounded=0;whiteSpace=wrap;html=1;fillColor=#E6E6E6;" vertex="1" parent="1">
          <mxGeometry x="314.5" y="344" width="73" height="30" as="geometry" />
        </mxCell>
        <mxCell id="21" value="Footer" style="rounded=0;whiteSpace=wrap;html=1;fillColor=#E6E6E6;" vertex="1" parent="1">
          <mxGeometry x="314.5" y="394" width="73" height="30" as="geometry" />
        </mxCell>
        <mxCell id="24" style="edgeStyle=none;html=1;entryX=0.5;entryY=0;entryDx=0;entryDy=0;" edge="1" parent="1" source="23" target="25">
          <mxGeometry relative="1" as="geometry">
            <mxPoint x="94" y="484" as="targetPoint" />
          </mxGeometry>
        </mxCell>
        <mxCell id="23" value="Trip list" style="rounded=0;whiteSpace=wrap;html=1;" vertex="1" parent="1">
          <mxGeometry x="44" y="384" width="100" height="40" as="geometry" />
        </mxCell>
        <mxCell id="25" value="Trip card" style="rounded=0;whiteSpace=wrap;html=1;" vertex="1" parent="1">
          <mxGeometry x="44" y="464" width="100" height="40" as="geometry" />
        </mxCell>
        <mxCell id="29" style="edgeStyle=none;html=1;entryX=0.5;entryY=0;entryDx=0;entryDy=0;exitX=0.5;exitY=1;exitDx=0;exitDy=0;" edge="1" parent="1" source="8" target="30">
          <mxGeometry relative="1" as="geometry">
            <mxPoint x="489" y="454" as="targetPoint" />
            <mxPoint x="534" y="404" as="sourcePoint" />
          </mxGeometry>
        </mxCell>
        <mxCell id="31" style="edgeStyle=none;html=1;exitX=0.5;exitY=1;exitDx=0;exitDy=0;entryX=0.5;entryY=0;entryDx=0;entryDy=0;" edge="1" parent="1" source="8" target="32">
          <mxGeometry relative="1" as="geometry">
            <mxPoint x="629" y="464" as="targetPoint" />
            <mxPoint x="581.5" y="404" as="sourcePoint" />
          </mxGeometry>
        </mxCell>
        <mxCell id="30" value="info viaggio" style="rounded=0;whiteSpace=wrap;html=1;" vertex="1" parent="1">
          <mxGeometry x="429" y="394" width="110" height="40" as="geometry" />
        </mxCell>
        <mxCell id="33" style="edgeStyle=none;html=1;entryX=0.5;entryY=0;entryDx=0;entryDy=0;exitX=0.5;exitY=1;exitDx=0;exitDy=0;" edge="1" parent="1" source="42" target="34">
          <mxGeometry relative="1" as="geometry">
            <mxPoint x="654" y="574" as="targetPoint" />
            <mxPoint x="654" y="494" as="sourcePoint" />
          </mxGeometry>
        </mxCell>
        <mxCell id="47" style="edgeStyle=none;html=1;exitX=0.5;exitY=1;exitDx=0;exitDy=0;entryX=0.5;entryY=0;entryDx=0;entryDy=0;" edge="1" parent="1" source="32" target="42">
          <mxGeometry relative="1" as="geometry" />
        </mxCell>
        <mxCell id="32" value="contact list" style="rounded=0;whiteSpace=wrap;html=1;" vertex="1" parent="1">
          <mxGeometry x="569" y="394" width="110" height="40" as="geometry" />
        </mxCell>
        <mxCell id="34" value="contact card" style="rounded=0;whiteSpace=wrap;html=1;" vertex="1" parent="1">
          <mxGeometry x="569" y="550" width="110" height="40" as="geometry" />
        </mxCell>
        <mxCell id="42" value="contact SearchBar" style="rounded=0;whiteSpace=wrap;html=1;" vertex="1" parent="1">
          <mxGeometry x="569" y="474" width="110" height="30" as="geometry" />
        </mxCell>
        <mxCell id="45" value="App" style="rounded=0;whiteSpace=wrap;html=1;" vertex="1" parent="1">
          <mxGeometry x="298" y="80" width="106" height="30" as="geometry" />
        </mxCell>
        <mxCell id="48" value="Trip form" style="rounded=0;whiteSpace=wrap;html=1;fillColor=#F6FFBC;" vertex="1" parent="1">
          <mxGeometry x="489" y="139" width="110" height="40" as="geometry" />
        </mxCell>
        <mxCell id="50" value="contact form" style="rounded=0;whiteSpace=wrap;html=1;fillColor=#F6FFBC;" vertex="1" parent="1">
          <mxGeometry x="609" y="139" width="110" height="40" as="geometry" />
        </mxCell>
        <mxCell id="57" value="contact form" style="rounded=0;whiteSpace=wrap;html=1;" vertex="1" parent="1">
          <mxGeometry x="709" y="394" width="110" height="40" as="geometry" />
        </mxCell>
      </root>
    </mxGraphModel>
  </diagram>
</mxfile>
